# xmcd
#
# Track frame offsets:
#	150
#	14065
#	31682
#	51870
#	66518
#	80458
#	93635
#	108265
#	123405
#	142843
#	162466
#	181941
#
# Disc length: 2603 seconds
#
# Revision: 1
# Processed by: cddbd v1.5.2PL0 Copyright (c) Steve Scherf et al.
# Submitted via: audiograbber 1.83.01
#
DISCID=9f0a290c
DTITLE=Mark Harrison - Crooked Smile
DYEAR=2012
DGENRE=Blues
TTITLE0=Georgia Greene
TTITLE1=Pearly Gates
TTITLE2=Crematorium Blues
TTITLE3=Mexican Gardener
TTITLE4=Bombs Coming Down
TTITLE5=Lay Your Burden Down
TTITLE6=The Demon Drink
TTITLE7=The Original Dawg
TTITLE8=Honeyboy
TTITLE9=Blessed
TTITLE10=Smiler John
TTITLE11=Reckless
EXTD=
EXTT0=
EXTT1=
EXTT2=
EXTT3=
EXTT4=
EXTT5=
EXTT6=
EXTT7=
EXTT8=
EXTT9=
EXTT10=
EXTT11=
PLAYORDER=
